PathFileType	4	(X/Y/Z)	/Users/mathieubourgeois/Desktop/Analyse/Traitement/Sujet_05/Data/Transformed_Sujet_05_velo_100.trc
DataRate	CameraRate	NumFrames	NumMarkers	Units	OrigDataRate	OrigDataStartFrame	OrigNumFrames
120.000000	120.000000	4	36	mm	120.000000	962	1924
Frame#	Time	RFHD			RANE			STRN			LANI			LKNE			T10			RHUM			RWRB			C7			LFWT			LTOE			RTOE			LWRA			LBWT			RBWT			RFWT			LKNI			RKNI			RKNE			LANE			RANI			LHEE			RHEE			LHUM			LRAD			RRAD			RWRA			LWRB			LFHD			LBHD			RBHD			RSHO			LSHO			CLAV			LCAR			RCAR			
		X1	Y1	Z1	X2	Y2	Z2	X3	Y3	Z3	X4	Y4	Z4	X5	Y5	Z5	X6	Y6	Z6	X7	Y7	Z7	X8	Y8	Z8	X9	Y9	Z9	X10	Y10	Z10	X11	Y11	Z11	X12	Y12	Z12	X13	Y13	Z13	X14	Y14	Z14	X15	Y15	Z15	X16	Y16	Z16	X17	Y17	Z17	X18	Y18	Z18	X19	Y19	Z19	X20	Y20	Z20	X21	Y21	Z21	X22	Y22	Z22	X23	Y23	Z23	X24	Y24	Z24	X25	Y25	Z25	X26	Y26	Z26	X27	Y27	Z27	X28	Y28	Z28	X29	Y29	Z29	X30	Y30	Z30	X31	Y31	Z31	X32	Y32	Z32	X33	Y33	Z33	X34	Y34	Z34	X35	Y35	Z35	X36	Y36	Z36	

963	8.016666666666666	144.4556274414062	1350.763671875	110.191177368164	-141.7668914794922	317.5574645996094	204.0333251953124	-196.7770080566406	1142.61669921875	31.14577293395987	-322.0361633300781	535.1410522460938	-68.14596557617195	-85.66307067871092	816.3515014648438	-172.4144287109376	-328.81591796875	1348.528564453125	41.65414428710925	28.21833610534665	1037.711669921875	196.7686157226562	243.386474609375	892.6954956054688	250.0313415527343	-100.7072448730469	1410.826049804688	22.39062309265127	-365.7764587402344	1074.065185546875	-80.61635589599621	-276.5339660644531	362.7814025878906	-78.80215454101568	35.59044265747068	230.0436553955078	159.8358764648438	279.0476379394531	940.768310546875	-154.0599822998047	-536.2460327148438	1101.170776367188	-6.478456497192516	-519.2670288085938	1106.465454101562	130.8480987548827	-351.7920532226562	1062.14697265625	166.2009277343749	-80.98263549804686	787.901611328125	-65.57874298095709	-112.4019317626953	676.4696655273438	111.7605895996093	-128.5404357910157	718.3245849609375	216.6642456054687	-344.3609619140625	550.5223388671875	-147.4014282226563	-109.3432769775391	325.2092895507812	121.9614868164062	-408.0499572753906	558.9368286132812	-102.5634155273438	-199.5735473632813	290.9340209960938	160.4285583496093	20.79774856567385	1039.72802734375	-155.8425598144532	66.32929992675784	1070.192138671875	-202.0773010253907	67.70072937011716	1070.388916015625	248.8314666748046	275.4417724609375	937.194580078125	199.8717193603515	249.7737731933594	887.52978515625	-187.941650390625	158.7848510742188	1346.696899414062	-36.0716400146485	39.44995498657227	1441.234252929688	-56.25691986083992	20.81859588623046	1468.9931640625	75.91583251953116	-24.81803512573244	1329.144775390625	172.7627868652343	-71.26718902587889	1323.760498046875	-133.0546264648438	-76.95291900634766	1265.669189453125	26.88120651245108	326.587158203125	936.9323120117188	-227.1377105712891	324.1103820800781	927.8729248046875	287.67236328125	
964	8.025	144.69580078125	1351.078247070312	107.5187683105468	-150.4458465576172	304.5221557617188	203.2708435058593	-196.6257934570312	1142.068115234375	30.07131385803213	-315.3816833496094	549.9219360351562	-66.89027404785163	-79.25186157226561	829.5948486328125	-173.6216278076172	-328.8371887207031	1347.968994140625	41.56860351562487	27.56426429748533	1037.574951171875	196.3738403320312	243.1119079589843	892.7130126953125	249.90380859375	-100.8679733276367	1410.666870117188	20.68370246887197	-365.2523498535156	1073.500366210938	-79.68134307861339	-265.5508422851562	379.1602478027344	-79.2799911499024	25.63640785217283	213.4708862304688	159.8759918212891	278.33349609375	940.9476928710938	-154.5220184326172	-535.5236206054688	1100.568603515625	-5.39329004287733	-518.0497436523438	1105.371704101562	132.0561218261718	-350.405029296875	1060.141723632812	166.5207061767577	-73.51554107666014	801.7759399414062	-66.34494781494146	-122.7199249267578	663.68603515625	110.9169616699218	-139.4119262695313	705.5426635742188	215.8498077392577	-337.1919250488281	564.908447265625	-146.6165618896485	-117.0224761962891	312.1296997070312	121.5888442993164	-401.9433288574219	572.693115234375	-101.5281143188477	-207.9267272949219	279.1645812988281	158.8003845214843	19.41905975341799	1038.884155273438	-156.5332946777344	64.69271087646487	1069.12939453125	-203.1348114013672	66.91558837890622	1070.275634765625	248.3673553466796	275.0371704101562	937.3887329101562	199.7777404785156	249.314193725586	887.4967651367188	-188.2003631591797	158.6085510253906	1346.613891601562	-38.81821823120124	39.31920242309571	1440.972412109375	-58.77273941040047	20.93041992187499	1469.15234375	73.22573089599601	-24.39183998107912	1329.421875	171.1001892089843	-72.68939208984374	1323.059814453125	-135.2727661132813	-76.85585784912109	1265.461547851562	25.00845336914054	326.0770874023438	936.8545532226562	-227.5082244873047	323.1249999999999	928.5060424804688	288.0944213867188	
965	8.033333333333333	144.9896850585938	1351.38916015625	104.9128417968749	-160.1895294189453	292.9645690917969	202.4410095214843	-196.1294708251953	1141.748046875	28.99857711791983	-306.3858642578125	563.3744506835938	-66.22996520996101	-73.26677703857419	842.9735107421875	-174.7191162109376	-328.6933898925781	1347.710083007812	41.47280502319323	27.1167125701904	1037.429321289062	196.0684356689453	242.9435882568359	892.6868286132812	249.7853851318359	-101.006103515625	1410.68505859375	18.67722129821768	-364.9457397460938	1073.245727539062	-78.51899719238293	-253.3245391845703	393.7999877929688	-78.87456512451178	14.21976184844969	197.6052856445312	160.0408782958984	277.5786437988281	940.9962768554688	-155.1424560546875	-534.7678833007812	1100.2041015625	-4.470839977264538	-516.865966796875	1104.612060546875	133.0390472412108	-349.2017211914062	1058.615478515625	166.8616943359374	-58.93185806274413	819.0812377929688	-67.1956863403321	-133.3759460449219	652.7001953125	110.074478149414	-150.6286773681641	694.1633911132812	215.0974578857421	-329.3564758300781	578.1414184570312	-145.5641632080079	-125.6215591430664	300.3797912597656	121.2058639526367	-394.0352783203125	584.4492797851562	-100.4640579223634	-217.6502075195313	269.55908203125	157.7606506347656	18.19849395751955	1038.087158203125	-157.2213592529297	63.22400665283206	1068.107788085938	-204.1808776855469	66.37335205078122	1070.1826171875	247.9054718017578	274.7750549316406	937.490478515625	199.6681213378906	248.8997955322266	887.3580322265625	-188.5644989013672	158.5347137451172	1346.545288085938	-41.46332931518561	39.20133209228516	1440.880004882812	-61.3283004760743	21.24042510986327	1469.433959960938	70.62966156005851	-23.94035911560061	1329.613037109375	169.5671234130859	-73.84951019287108	1322.457397460938	-137.428680419922	-76.70236206054688	1265.533569335938	23.22587203979483	325.3975524902344	936.7356567382812	-227.8058624267578	323.6870117187499	927.9418334960938	287.3886108398438	
966	8.041666666666666	145.4076232910156	1351.712890625	102.4002456665038	-171.0341949462891	282.7632446289062	201.6488800048828	-195.8101501464844	1141.678466796875	27.93360137939444	-298.0419006347656	575.8902587890625	-65.13122558593757	-67.77239990234372	856.1883544921875	-175.6079864501954	-328.3579711914062	1347.7021484375	41.27402496337878	26.95396614074705	1037.324829101562	195.7085418701171	242.9245147705078	892.642333984375	249.6572723388672	-100.9635009765625	1410.839477539062	16.81806182861319	-364.4517211914062	1072.95361328125	-77.9028778076173	-239.0497589111328	408.0866394042969	-78.93129730224615	1.317756652832012	182.7093048095703	160.2554473876953	277.1321716308594	941.0370483398438	-155.8294830322266	-533.974853515625	1100.167602539062	-3.878485441208019	-515.76513671875	1104.178466796875	133.6996459960936	-348.111572265625	1057.5703125	166.9219360351562	-57.80493927001952	830.7232666015625	-67.84182739257818	-144.0969543457031	642.4306030273438	109.0847702026367	-161.8429260253907	684.222412109375	214.3900299072265	-320.9715576171875	589.98046875	-144.328353881836	-135.2281036376953	289.9960327148438	120.8945159912109	-386.0826416015625	594.4041137695312	-98.81747436523446	-228.1580657958985	260.9710083007812	155.9420471191406	17.20275688171388	1037.346923828125	-157.9835968017579	62.04154205322268	1067.141845703125	-205.2872772216797	66.092658996582	1070.37109375	247.5558776855468	274.7229614257812	937.5352783203125	199.5450744628906	248.6695098876953	887.13720703125	-188.9141082763672	158.5829162597656	1346.502563476562	-44.01793670654303	39.30182266235352	1440.9091796875	-63.80107116699227	21.70683097839355	1469.83251953125	68.10620880126945	-23.31616210937502	1329.783325195312	168.1971740722655	-74.68296813964842	1321.913696289062	-139.4197235107423	-76.36257171630859	1265.796752929688	21.46155738830558	325.3330383300781	936.2222900390625	-228.4649963378907	323.7589416503906	927.87255859375	287.2055969238281	
